<mxfile host="Electron" agent="Mozilla/5.0 (Windows NT 10.0; Win64; x64) AppleWebKit/537.36 (KHTML, like Gecko) draw.io/24.7.17 Chrome/128.0.6613.36 Electron/32.0.1 Safari/537.36" version="24.7.17">
  <diagram name="Page-1" id="NXVXX9Czso79KBBDQ060">
    <mxGraphModel dx="989" dy="659" grid="1" gridSize="10" guides="1" tooltips="1" connect="1" arrows="1" fold="1" page="1" pageScale="1" pageWidth="850" pageHeight="1100" math="0" shadow="0">
      <root>
        <mxCell id="0" />
        <mxCell id="1" parent="0" />
        <mxCell id="Ur2yTSA53AETp8OJoPMe-1" value="" style="edgeStyle=orthogonalEdgeStyle;rounded=0;orthogonalLoop=1;jettySize=auto;html=1;" edge="1" parent="1" source="bjVijm4IpRTGkiFybNOT-1" target="bjVijm4IpRTGkiFybNOT-8">
          <mxGeometry relative="1" as="geometry" />
        </mxCell>
        <mxCell id="bjVijm4IpRTGkiFybNOT-1" value="Заказ принят" style="rounded=1;whiteSpace=wrap;html=1;" parent="1" vertex="1">
          <mxGeometry x="340" y="40" width="120" height="60" as="geometry" />
        </mxCell>
        <mxCell id="bjVijm4IpRTGkiFybNOT-9" value="" style="edgeStyle=orthogonalEdgeStyle;rounded=0;orthogonalLoop=1;jettySize=auto;html=1;" parent="1" source="bjVijm4IpRTGkiFybNOT-6" target="bjVijm4IpRTGkiFybNOT-8" edge="1">
          <mxGeometry relative="1" as="geometry" />
        </mxCell>
        <mxCell id="bjVijm4IpRTGkiFybNOT-6" value="Разработать календарный план" style="rounded=0;whiteSpace=wrap;html=1;" parent="1" vertex="1">
          <mxGeometry x="340" y="130" width="120" height="60" as="geometry" />
        </mxCell>
        <mxCell id="bjVijm4IpRTGkiFybNOT-11" value="" style="edgeStyle=orthogonalEdgeStyle;rounded=0;orthogonalLoop=1;jettySize=auto;html=1;" parent="1" source="bjVijm4IpRTGkiFybNOT-8" target="bjVijm4IpRTGkiFybNOT-10" edge="1">
          <mxGeometry relative="1" as="geometry" />
        </mxCell>
        <mxCell id="bjVijm4IpRTGkiFybNOT-8" value="Согласовать с заказчиком" style="rounded=0;whiteSpace=wrap;html=1;" parent="1" vertex="1">
          <mxGeometry x="340" y="220" width="120" height="60" as="geometry" />
        </mxCell>
        <mxCell id="bjVijm4IpRTGkiFybNOT-13" value="" style="edgeStyle=orthogonalEdgeStyle;rounded=0;orthogonalLoop=1;jettySize=auto;html=1;" parent="1" source="bjVijm4IpRTGkiFybNOT-10" target="bjVijm4IpRTGkiFybNOT-12" edge="1">
          <mxGeometry relative="1" as="geometry" />
        </mxCell>
        <mxCell id="bjVijm4IpRTGkiFybNOT-16" value="" style="edgeStyle=orthogonalEdgeStyle;rounded=0;orthogonalLoop=1;jettySize=auto;html=1;" parent="1" source="bjVijm4IpRTGkiFybNOT-10" target="bjVijm4IpRTGkiFybNOT-15" edge="1">
          <mxGeometry relative="1" as="geometry" />
        </mxCell>
        <mxCell id="bjVijm4IpRTGkiFybNOT-10" value="Заказ согласован?" style="rhombus;whiteSpace=wrap;html=1;rounded=0;" parent="1" vertex="1">
          <mxGeometry x="350" y="320" width="100" height="100" as="geometry" />
        </mxCell>
        <mxCell id="bjVijm4IpRTGkiFybNOT-14" style="edgeStyle=orthogonalEdgeStyle;rounded=0;orthogonalLoop=1;jettySize=auto;html=1;entryX=0;entryY=0.5;entryDx=0;entryDy=0;" parent="1" source="bjVijm4IpRTGkiFybNOT-12" target="bjVijm4IpRTGkiFybNOT-8" edge="1">
          <mxGeometry relative="1" as="geometry">
            <Array as="points">
              <mxPoint x="130" y="370" />
              <mxPoint x="130" y="250" />
            </Array>
          </mxGeometry>
        </mxCell>
        <mxCell id="bjVijm4IpRTGkiFybNOT-12" value="Внести корректировки" style="whiteSpace=wrap;html=1;rounded=0;" parent="1" vertex="1">
          <mxGeometry x="170" y="340" width="120" height="60" as="geometry" />
        </mxCell>
        <mxCell id="Ur2yTSA53AETp8OJoPMe-2" style="edgeStyle=orthogonalEdgeStyle;rounded=0;orthogonalLoop=1;jettySize=auto;html=1;" edge="1" parent="1" source="bjVijm4IpRTGkiFybNOT-15">
          <mxGeometry relative="1" as="geometry">
            <mxPoint x="400" y="460" as="targetPoint" />
            <Array as="points">
              <mxPoint x="580" y="440" />
              <mxPoint x="400" y="440" />
            </Array>
          </mxGeometry>
        </mxCell>
        <mxCell id="bjVijm4IpRTGkiFybNOT-15" value="Утвердить окончательный план" style="whiteSpace=wrap;html=1;rounded=0;" parent="1" vertex="1">
          <mxGeometry x="520" y="340" width="120" height="60" as="geometry" />
        </mxCell>
        <mxCell id="bjVijm4IpRTGkiFybNOT-17" value="нет" style="text;html=1;align=center;verticalAlign=middle;resizable=0;points=[];autosize=1;strokeColor=none;fillColor=none;" parent="1" vertex="1">
          <mxGeometry x="310" y="340" width="40" height="30" as="geometry" />
        </mxCell>
        <mxCell id="bjVijm4IpRTGkiFybNOT-18" value="да" style="text;html=1;align=center;verticalAlign=middle;resizable=0;points=[];autosize=1;strokeColor=none;fillColor=none;" parent="1" vertex="1">
          <mxGeometry x="460" y="340" width="40" height="30" as="geometry" />
        </mxCell>
        <mxCell id="Ur2yTSA53AETp8OJoPMe-5" style="edgeStyle=orthogonalEdgeStyle;rounded=0;orthogonalLoop=1;jettySize=auto;html=1;entryX=0.5;entryY=0;entryDx=0;entryDy=0;" edge="1" parent="1" source="bjVijm4IpRTGkiFybNOT-28" target="bjVijm4IpRTGkiFybNOT-43">
          <mxGeometry relative="1" as="geometry" />
        </mxCell>
        <mxCell id="bjVijm4IpRTGkiFybNOT-28" value="Разработать проект" style="whiteSpace=wrap;html=1;rounded=0;" parent="1" vertex="1">
          <mxGeometry x="340" y="460" width="120" height="60" as="geometry" />
        </mxCell>
        <mxCell id="Ur2yTSA53AETp8OJoPMe-6" style="edgeStyle=orthogonalEdgeStyle;rounded=0;orthogonalLoop=1;jettySize=auto;html=1;entryX=0.5;entryY=0;entryDx=0;entryDy=0;" edge="1" parent="1" source="bjVijm4IpRTGkiFybNOT-43" target="bjVijm4IpRTGkiFybNOT-54">
          <mxGeometry relative="1" as="geometry" />
        </mxCell>
        <mxCell id="bjVijm4IpRTGkiFybNOT-43" value="Продемонстрировать работы эксперту" style="whiteSpace=wrap;html=1;rounded=0;" parent="1" vertex="1">
          <mxGeometry x="340" y="550" width="120" height="60" as="geometry" />
        </mxCell>
        <mxCell id="Ur2yTSA53AETp8OJoPMe-7" style="edgeStyle=orthogonalEdgeStyle;rounded=0;orthogonalLoop=1;jettySize=auto;html=1;entryX=0.5;entryY=0;entryDx=0;entryDy=0;" edge="1" parent="1" source="bjVijm4IpRTGkiFybNOT-54" target="bjVijm4IpRTGkiFybNOT-56">
          <mxGeometry relative="1" as="geometry" />
        </mxCell>
        <mxCell id="bjVijm4IpRTGkiFybNOT-54" value="Оформить экспертное заключение" style="whiteSpace=wrap;html=1;rounded=0;" parent="1" vertex="1">
          <mxGeometry x="340" y="640" width="120" height="60" as="geometry" />
        </mxCell>
        <mxCell id="Ur2yTSA53AETp8OJoPMe-8" style="edgeStyle=orthogonalEdgeStyle;rounded=0;orthogonalLoop=1;jettySize=auto;html=1;entryX=0.5;entryY=0;entryDx=0;entryDy=0;" edge="1" parent="1" source="bjVijm4IpRTGkiFybNOT-56" target="bjVijm4IpRTGkiFybNOT-60">
          <mxGeometry relative="1" as="geometry" />
        </mxCell>
        <mxCell id="bjVijm4IpRTGkiFybNOT-56" value="Предоставить проект и заключение заказчику" style="whiteSpace=wrap;html=1;rounded=0;" parent="1" vertex="1">
          <mxGeometry x="340" y="730" width="120" height="60" as="geometry" />
        </mxCell>
        <mxCell id="bjVijm4IpRTGkiFybNOT-60" value="Проект предоставлен" style="rounded=1;whiteSpace=wrap;html=1;" parent="1" vertex="1">
          <mxGeometry x="340" y="840" width="120" height="60" as="geometry" />
        </mxCell>
        <mxCell id="Ur2yTSA53AETp8OJoPMe-11" value="" style="edgeStyle=orthogonalEdgeStyle;rounded=0;orthogonalLoop=1;jettySize=auto;html=1;" edge="1" parent="1" source="Ur2yTSA53AETp8OJoPMe-9" target="Ur2yTSA53AETp8OJoPMe-10">
          <mxGeometry relative="1" as="geometry" />
        </mxCell>
        <mxCell id="Ur2yTSA53AETp8OJoPMe-9" value="Начало выполнения проектных работ" style="rounded=1;whiteSpace=wrap;html=1;" vertex="1" parent="1">
          <mxGeometry x="1230" y="40" width="120" height="60" as="geometry" />
        </mxCell>
        <mxCell id="Ur2yTSA53AETp8OJoPMe-13" value="" style="edgeStyle=orthogonalEdgeStyle;rounded=0;orthogonalLoop=1;jettySize=auto;html=1;" edge="1" parent="1" source="Ur2yTSA53AETp8OJoPMe-10" target="Ur2yTSA53AETp8OJoPMe-12">
          <mxGeometry relative="1" as="geometry" />
        </mxCell>
        <mxCell id="Ur2yTSA53AETp8OJoPMe-10" value="Собрать и проанализировать данные" style="rounded=0;whiteSpace=wrap;html=1;" vertex="1" parent="1">
          <mxGeometry x="1230" y="130" width="120" height="60" as="geometry" />
        </mxCell>
        <mxCell id="Ur2yTSA53AETp8OJoPMe-27" value="" style="edgeStyle=orthogonalEdgeStyle;rounded=0;orthogonalLoop=1;jettySize=auto;html=1;" edge="1" parent="1" source="Ur2yTSA53AETp8OJoPMe-12" target="Ur2yTSA53AETp8OJoPMe-26">
          <mxGeometry relative="1" as="geometry" />
        </mxCell>
        <mxCell id="Ur2yTSA53AETp8OJoPMe-12" value="Создать схемы и спецификации" style="whiteSpace=wrap;html=1;rounded=0;" vertex="1" parent="1">
          <mxGeometry x="1230" y="220" width="120" height="60" as="geometry" />
        </mxCell>
        <mxCell id="Ur2yTSA53AETp8OJoPMe-17" value="" style="edgeStyle=orthogonalEdgeStyle;rounded=0;orthogonalLoop=1;jettySize=auto;html=1;" edge="1" parent="1" source="Ur2yTSA53AETp8OJoPMe-14" target="Ur2yTSA53AETp8OJoPMe-16">
          <mxGeometry relative="1" as="geometry" />
        </mxCell>
        <mxCell id="Ur2yTSA53AETp8OJoPMe-14" value="Разработать проект" style="whiteSpace=wrap;html=1;rounded=0;" vertex="1" parent="1">
          <mxGeometry x="1230" y="440" width="120" height="60" as="geometry" />
        </mxCell>
        <mxCell id="Ur2yTSA53AETp8OJoPMe-19" value="" style="edgeStyle=orthogonalEdgeStyle;rounded=0;orthogonalLoop=1;jettySize=auto;html=1;" edge="1" parent="1" source="Ur2yTSA53AETp8OJoPMe-16" target="Ur2yTSA53AETp8OJoPMe-18">
          <mxGeometry relative="1" as="geometry" />
        </mxCell>
        <mxCell id="Ur2yTSA53AETp8OJoPMe-16" value="Проедоставить промежуточные рпоекты" style="whiteSpace=wrap;html=1;rounded=0;" vertex="1" parent="1">
          <mxGeometry x="1230" y="530" width="120" height="60" as="geometry" />
        </mxCell>
        <mxCell id="Ur2yTSA53AETp8OJoPMe-21" value="" style="edgeStyle=orthogonalEdgeStyle;rounded=0;orthogonalLoop=1;jettySize=auto;html=1;" edge="1" parent="1" source="Ur2yTSA53AETp8OJoPMe-18" target="Ur2yTSA53AETp8OJoPMe-20">
          <mxGeometry relative="1" as="geometry" />
        </mxCell>
        <mxCell id="Ur2yTSA53AETp8OJoPMe-25" value="" style="edgeStyle=orthogonalEdgeStyle;rounded=0;orthogonalLoop=1;jettySize=auto;html=1;" edge="1" parent="1" source="Ur2yTSA53AETp8OJoPMe-18" target="Ur2yTSA53AETp8OJoPMe-24">
          <mxGeometry relative="1" as="geometry" />
        </mxCell>
        <mxCell id="Ur2yTSA53AETp8OJoPMe-18" value="Корректировки необходимы?" style="rhombus;whiteSpace=wrap;html=1;rounded=0;" vertex="1" parent="1">
          <mxGeometry x="1230" y="640" width="120" height="90" as="geometry" />
        </mxCell>
        <mxCell id="Ur2yTSA53AETp8OJoPMe-23" style="edgeStyle=orthogonalEdgeStyle;rounded=0;orthogonalLoop=1;jettySize=auto;html=1;entryX=0;entryY=0.5;entryDx=0;entryDy=0;" edge="1" parent="1" source="Ur2yTSA53AETp8OJoPMe-20" target="Ur2yTSA53AETp8OJoPMe-16">
          <mxGeometry relative="1" as="geometry">
            <Array as="points">
              <mxPoint x="1090" y="560" />
            </Array>
          </mxGeometry>
        </mxCell>
        <mxCell id="Ur2yTSA53AETp8OJoPMe-20" value="Внести корректировки" style="whiteSpace=wrap;html=1;rounded=0;" vertex="1" parent="1">
          <mxGeometry x="1030" y="655" width="120" height="60" as="geometry" />
        </mxCell>
        <mxCell id="Ur2yTSA53AETp8OJoPMe-24" value="Подготовить все документы проекта" style="whiteSpace=wrap;html=1;rounded=0;" vertex="1" parent="1">
          <mxGeometry x="1430" y="655" width="120" height="60" as="geometry" />
        </mxCell>
        <mxCell id="Ur2yTSA53AETp8OJoPMe-28" value="" style="edgeStyle=orthogonalEdgeStyle;rounded=0;orthogonalLoop=1;jettySize=auto;html=1;" edge="1" parent="1" source="Ur2yTSA53AETp8OJoPMe-26" target="Ur2yTSA53AETp8OJoPMe-14">
          <mxGeometry relative="1" as="geometry" />
        </mxCell>
        <mxCell id="Ur2yTSA53AETp8OJoPMe-26" value="1 день" style="shape=or;whiteSpace=wrap;html=1;" vertex="1" parent="1">
          <mxGeometry x="1260" y="315" width="60" height="80" as="geometry" />
        </mxCell>
        <mxCell id="Ur2yTSA53AETp8OJoPMe-29" value="да" style="text;html=1;align=center;verticalAlign=middle;resizable=0;points=[];autosize=1;strokeColor=none;fillColor=none;" vertex="1" parent="1">
          <mxGeometry x="1170" y="658" width="40" height="30" as="geometry" />
        </mxCell>
        <mxCell id="Ur2yTSA53AETp8OJoPMe-30" value="нет" style="text;html=1;align=center;verticalAlign=middle;resizable=0;points=[];autosize=1;strokeColor=none;fillColor=none;" vertex="1" parent="1">
          <mxGeometry x="1370" y="658" width="40" height="30" as="geometry" />
        </mxCell>
        <mxCell id="Ur2yTSA53AETp8OJoPMe-37" value="" style="edgeStyle=orthogonalEdgeStyle;rounded=0;orthogonalLoop=1;jettySize=auto;html=1;" edge="1" parent="1" source="Ur2yTSA53AETp8OJoPMe-31" target="Ur2yTSA53AETp8OJoPMe-36">
          <mxGeometry relative="1" as="geometry" />
        </mxCell>
        <mxCell id="Ur2yTSA53AETp8OJoPMe-31" value="Сдать проект" style="whiteSpace=wrap;html=1;rounded=0;" vertex="1" parent="1">
          <mxGeometry x="1230" y="910" width="120" height="60" as="geometry" />
        </mxCell>
        <mxCell id="Ur2yTSA53AETp8OJoPMe-35" value="" style="edgeStyle=orthogonalEdgeStyle;rounded=0;orthogonalLoop=1;jettySize=auto;html=1;" edge="1" parent="1" source="Ur2yTSA53AETp8OJoPMe-33" target="Ur2yTSA53AETp8OJoPMe-31">
          <mxGeometry relative="1" as="geometry" />
        </mxCell>
        <mxCell id="Ur2yTSA53AETp8OJoPMe-33" value="3 дня" style="shape=or;whiteSpace=wrap;html=1;" vertex="1" parent="1">
          <mxGeometry x="1260" y="790" width="60" height="80" as="geometry" />
        </mxCell>
        <mxCell id="Ur2yTSA53AETp8OJoPMe-34" style="edgeStyle=orthogonalEdgeStyle;rounded=0;orthogonalLoop=1;jettySize=auto;html=1;entryX=0.482;entryY=0.086;entryDx=0;entryDy=0;entryPerimeter=0;" edge="1" parent="1" source="Ur2yTSA53AETp8OJoPMe-24" target="Ur2yTSA53AETp8OJoPMe-33">
          <mxGeometry relative="1" as="geometry">
            <Array as="points">
              <mxPoint x="1490" y="760" />
              <mxPoint x="1289" y="760" />
            </Array>
          </mxGeometry>
        </mxCell>
        <mxCell id="Ur2yTSA53AETp8OJoPMe-36" value="Проект сдан" style="rounded=1;whiteSpace=wrap;html=1;" vertex="1" parent="1">
          <mxGeometry x="1230" y="1010" width="120" height="60" as="geometry" />
        </mxCell>
      </root>
    </mxGraphModel>
  </diagram>
</mxfile>
